<?xml version="1.0" standalone="no"?>
<!DOCTYPE svg PUBLIC "-//W3C//DTD SVG 20010904//EN"
 "http://www.w3.org/TR/2001/REC-SVG-20010904/DTD/svg10.dtd">
<svg version="1.0" xmlns="http://www.w3.org/2000/svg" viewBox="0 0 256.000000 256.000000"
 preserveAspectRatio="xMidYMid meet">

<g transform="translate(0.000000,256.000000) scale(0.100000,-0.100000)"
stroke="none">
<path d="M1560 2380 l0 -140 28 -12 c167 -68 274 -132 374 -227 414 -390 414
-1052 0 -1442 -100 -95 -207 -159 -374 -227 l-28 -12 0 -140 c0 -163 -7 -156
118 -114 188 63 339 154 483 291 192 184 313 400 372 663 30 135 30 385 0 520
-59 263 -180 479 -372 663 -144 137 -295 228 -483 291 -125 42 -118 49 -118
-114z"/>
<path d="M925 2060 l-350 -350 -287 0 -288 0 0 -430 0 -430 287 0 288 0 352
-352 353 -353 0 1133 c0 622 -1 1132 -3 1132 -1 0 -160 -157 -352 -350z"/>
<path d="M1560 1280 c0 -314 3 -570 6 -570 13 0 81 45 132 88 29 24 73 73 98
108 218 305 135 718 -183 918 -24 14 -45 26 -48 26 -3 0 -5 -256 -5 -570z"/>
</g>
</svg>
