<?xml version="1.0" standalone="no"?>
<!DOCTYPE svg PUBLIC "-//W3C//DTD SVG 20010904//EN"
 "http://www.w3.org/TR/2001/REC-SVG-20010904/DTD/svg10.dtd">
<svg version="1.0" xmlns="http://www.w3.org/2000/svg" viewBox="0 0 256.000000 256.000000"
 preserveAspectRatio="xMidYMid meet">

<g transform="translate(0.000000,256.000000) scale(0.100000,-0.100000)"
fill="#000000" stroke="none">
<path d="M1235 2160 l-400 -400 -317 0 -318 0 0 -480 0 -480 317 0 318 0 402
-402 403 -403 0 1283 c0 705 -1 1282 -3 1282 -1 0 -182 -180 -402 -400z"/>
<path d="M1960 1280 c0 -352 3 -640 6 -640 20 0 151 99 198 150 258 280 258
700 0 980 -47 51 -178 150 -198 150 -3 0 -6 -288 -6 -640z"/>
</g>
</svg>
