<?xml version="1.0" standalone="no"?>
<!DOCTYPE svg PUBLIC "-//W3C//DTD SVG 20010904//EN"
 "http://www.w3.org/TR/2001/REC-SVG-20010904/DTD/svg10.dtd">
<svg version="1.0" xmlns="http://www.w3.org/2000/svg" viewBox="0 0 256.000000 256.000000"
 preserveAspectRatio="xMidYMid meet">

<g transform="translate(0.000000,256.000000) scale(0.100000,-0.100000)" stroke="none">
<path d="M207 1528 c-150 -27 -242 -186 -192 -329 43 -121 165 -191 291 -168
203 38 274 302 119 438 -64 56 -132 75 -218 59z"/>
<path d="M1233 1529 c-198 -37 -275 -285 -132 -428 158 -159 431 -46 431 179
0 160 -142 278 -299 249z"/>
<path d="M2252 1529 c-154 -30 -246 -207 -181 -349 51 -113 159 -170 280 -148
152 28 245 184 194 329 -30 85 -103 151 -181 164 -22 4 -46 8 -54 10 -8 1 -34
-1 -58 -6z"/>
</g>
</svg>
