<?xml version="1.0" standalone="no"?>
<!DOCTYPE svg PUBLIC "-//W3C//DTD SVG 20010904//EN"
 "http://www.w3.org/TR/2001/REC-SVG-20010904/DTD/svg10.dtd">
<svg version="1.0" xmlns="http://www.w3.org/2000/svg" viewBox="0 0 256.000000 256.000000"
 preserveAspectRatio="xMidYMid meet">

<g transform="translate(0.000000,256.000000) scale(0.100000,-0.100000)"
stroke="none">
<path d="M92 2468 l-92 -93 332 -332 333 -333 -333 0 -332 0 0 -430 0 -430
287 0 288 0 352 -352 353 -353 0 475 0 475 300 -300 300 -300 -32 -27 c-30
-25 -191 -109 -260 -137 l-28 -11 0 -139 c0 -77 3 -142 8 -144 13 -8 186 53
280 99 51 26 125 70 165 99 l72 54 145 -145 145 -144 93 93 92 92 -1188 1188
-1187 1187 -93 -92z"/>
<path d="M1560 2380 l0 -140 28 -12 c83 -33 200 -92 250 -125 175 -116 328
-321 390 -525 62 -199 58 -420 -8 -614 l-20 -58 107 -108 107 -107 32 69 c33
71 74 201 95 305 21 102 17 364 -8 475 -59 263 -180 479 -372 663 -144 137
-295 228 -483 291 -125 42 -118 49 -118 -114z"/>
<path d="M1130 2265 l-145 -145 148 -148 147 -147 0 293 c0 160 -1 292 -3 292
-1 0 -67 -65 -147 -145z"/>
<path d="M1560 1697 l0 -152 173 -173 c95 -95 176 -170 180 -166 10 11 8 112
-4 180 -32 182 -138 339 -296 438 -24 14 -45 26 -48 26 -3 0 -5 -69 -5 -153z"/>
</g>
</svg>
