<?xml version="1.0" standalone="no"?>
<!DOCTYPE svg PUBLIC "-//W3C//DTD SVG 20010904//EN"
 "http://www.w3.org/TR/2001/REC-SVG-20010904/DTD/svg10.dtd">
<svg version="1.0" xmlns="http://www.w3.org/2000/svg" viewBox="0 0 256.000000 256.000000"
 preserveAspectRatio="xMidYMid meet">

<g transform="translate(0.000000,256.000000) scale(0.100000,-0.100000)"
fill="#000000" stroke="none">
<path d="M106 2096 c-22 -8 -53 -29 -70 -46 l-31 -30 0 -741 0 -741 37 -33
c54 -50 123 -66 189 -43 19 6 240 153 491 327 252 174 467 322 478 330 20 13
20 11 20 -277 l0 -291 30 -35 c57 -65 152 -81 230 -41 15 8 196 131 401 273
206 142 430 297 499 344 161 111 175 126 175 188 0 38 -5 54 -25 75 -14 15
-146 111 -295 213 -148 103 -369 255 -490 339 -121 84 -236 162 -257 173 -83
44 -173 33 -234 -31 l-29 -30 -5 -294 -5 -293 -470 325 c-259 178 -481 329
-495 335 -42 17 -103 19 -144 4z m340 -313 c126 -87 341 -234 477 -328 135
-93 247 -172 247 -175 0 -4 -950 -662 -986 -683 -12 -7 -14 94 -14 684 l0 691
23 -15 c13 -8 127 -86 253 -174z m1464 -168 c263 -181 479 -332 479 -335 0 -4
-706 -493 -979 -679 -20 -13 -20 -13 -20 679 0 692 0 692 20 679 11 -8 236
-162 500 -344z"/>
</g>
</svg>
