<?xml version="1.0" standalone="no"?>
<!DOCTYPE svg PUBLIC "-//W3C//DTD SVG 20010904//EN"
 "http://www.w3.org/TR/2001/REC-SVG-20010904/DTD/svg10.dtd">
<svg version="1.0" xmlns="http://www.w3.org/2000/svg" viewBox="0 0 256.000000 256.000000"
 preserveAspectRatio="xMidYMid meet">

<g transform="translate(0.000000,256.000000) scale(0.100000,-0.100000)"
stroke="none">
<path d="M1112 2525 c-48 -21 -62 -64 -62 -190 0 -94 -2 -105 -18 -105 -10 0
-22 -4 -28 -8 -5 -5 -29 -14 -54 -21 -25 -7 -74 -28 -110 -47 l-65 -34 -76 76
c-85 85 -128 103 -183 80 -38 -17 -221 -202 -231 -234 -15 -50 4 -89 82 -172
l76 -81 -36 -77 c-20 -42 -44 -103 -54 -134 l-18 -58 -102 0 c-84 0 -108 -4
-141 -21 -59 -32 -72 -71 -72 -218 0 -200 28 -231 210 -231 87 0 101 -2 106
-17 3 -10 8 -25 12 -33 3 -8 6 -17 7 -20 11 -32 21 -56 51 -118 19 -40 34 -78
34 -84 0 -7 -35 -47 -77 -90 -75 -75 -77 -78 -77 -127 l-1 -51 110 -110 c152
-153 176 -155 300 -30 38 39 75 70 82 70 6 0 34 -12 60 -26 26 -15 84 -39 128
-54 l80 -28 5 -113 c3 -64 11 -124 18 -136 27 -48 80 -63 217 -63 82 0 133 4
148 12 73 41 89 81 86 208 l-3 95 39 11 c54 14 68 20 157 62 l78 36 77 -76
c84 -81 120 -97 176 -79 42 14 211 184 232 233 14 34 14 42 0 75 -9 21 -47 70
-86 109 l-70 71 37 73 c20 40 44 101 54 134 l17 61 120 5 c103 4 124 8 143 25
43 39 50 67 50 205 0 112 -3 137 -20 171 -27 52 -53 61 -183 68 l-108 6 -28
80 c-16 44 -41 104 -56 134 l-27 53 72 73 c78 78 104 130 89 175 -5 14 -59 75
-119 135 -106 106 -110 108 -154 108 -44 0 -50 -3 -126 -79 -45 -43 -83 -80
-84 -82 -2 -2 -35 13 -72 32 -38 19 -101 44 -141 56 l-71 21 -4 125 c-3 120
-4 124 -31 151 -27 28 -28 28 -180 30 -116 2 -160 -1 -185 -12z m319 -72 c10
-11 15 -54 17 -144 l4 -128 31 -7 c18 -3 37 -10 42 -14 6 -4 25 -10 43 -13 18
-4 73 -27 123 -52 49 -25 98 -45 107 -45 10 0 55 38 102 85 52 53 93 85 105
85 31 0 205 -180 205 -211 0 -17 -23 -47 -76 -99 -41 -41 -80 -84 -86 -94 -9
-16 -2 -36 32 -105 60 -118 57 -112 75 -182 9 -35 24 -69 33 -76 12 -8 56 -12
139 -13 76 0 124 -4 128 -11 11 -18 5 -282 -7 -296 -7 -9 -45 -13 -134 -13
-141 0 -141 0 -163 -95 -7 -27 -34 -96 -61 -152 -28 -56 -50 -106 -50 -109 0
-4 38 -47 85 -95 58 -59 85 -94 85 -110 0 -31 -175 -209 -205 -209 -12 0 -54
34 -105 85 -47 47 -91 85 -100 85 -8 0 -54 -19 -101 -43 -47 -24 -112 -51
-145 -60 -115 -34 -108 -24 -114 -177 l-5 -135 -144 -3 c-97 -2 -148 1 -157 9
-11 9 -14 42 -14 135 0 139 -3 145 -83 159 -20 4 -40 11 -43 16 -3 5 -13 9
-23 9 -9 0 -56 20 -104 45 -48 25 -93 45 -100 45 -7 0 -51 -38 -98 -85 -61
-61 -93 -85 -111 -85 -30 0 -208 177 -208 206 0 11 38 59 85 107 47 48 85 96
85 107 0 10 -15 45 -34 77 -18 32 -46 96 -61 143 -46 146 -25 130 -174 130
-97 0 -131 3 -140 14 -8 9 -11 60 -9 157 l3 144 132 3 c148 3 153 5 167 82 8
44 20 74 74 180 23 46 42 91 42 99 0 8 -38 54 -85 102 -47 47 -85 95 -85 105
0 22 188 214 209 214 8 0 56 -41 107 -90 104 -103 84 -100 219 -31 44 23 97
44 118 47 20 4 40 11 43 15 3 5 14 9 24 9 42 0 50 24 50 154 0 81 4 126 12
134 8 8 56 12 149 12 115 0 139 -3 150 -17z"/>
<path d="M1180 1939 c-85 -14 -90 -15 -180 -57 -115 -52 -246 -176 -300 -283
-57 -112 -73 -175 -74 -299 -1 -126 2 -145 33 -237 49 -144 147 -263 295 -357
15 -10 67 -31 114 -48 170 -58 344 -47 508 33 131 64 257 192 303 309 8 19 18
40 22 46 13 16 38 148 43 217 8 138 -53 318 -149 439 -78 97 -212 186 -336
222 -70 20 -207 27 -279 15z m227 -74 c115 -27 223 -87 300 -169 209 -220 224
-542 37 -785 -105 -136 -281 -221 -458 -221 -88 0 -159 11 -201 29 -136 60
-234 136 -297 233 -64 98 -90 180 -96 304 -4 96 -2 122 18 185 93 309 395 492
697 424z"/>
</g>
</svg>
