<?xml version="1.0" standalone="no"?>
<!DOCTYPE svg PUBLIC "-//W3C//DTD SVG 20010904//EN"
 "http://www.w3.org/TR/2001/REC-SVG-20010904/DTD/svg10.dtd">
<svg version="1.0" xmlns="http://www.w3.org/2000/svg"
 width="256.000000pt" height="256.000000pt" viewBox="0 0 256.000000 256.000000"
 preserveAspectRatio="xMidYMid meet">

<g transform="translate(0.000000,256.000000) scale(0.100000,-0.100000)"
fill="#000000" stroke="none">
<path d="M221 2498 c-72 -27 -132 -89 -160 -162 -21 -57 -21 -61 -21 -1056 0
-986 0 -1000 21 -1055 27 -72 92 -137 164 -164 55 -21 69 -21 1055 -21 986 0
1000 0 1055 21 72 27 137 92 164 164 21 55 21 69 21 1055 0 986 0 1000 -21
1055 -27 72 -92 137 -164 164 -55 21 -69 21 -1058 20 -989 0 -1003 0 -1056
-21z m2058 -182 c15 -8 32 -26 39 -41 9 -19 12 -265 12 -995 0 -730 -3 -976
-12 -995 -26 -57 17 -55 -1037 -55 -731 0 -977 3 -996 12 -57 26 -55 -17 -55
1040 1 1044 -1 1005 51 1034 37 20 1958 20 1998 0z"/>
<path d="M985 1715 l-25 -24 0 -411 0 -411 25 -24 c26 -27 80 -34 117 -14 45
24 48 55 48 449 0 394 -3 425 -48 449 -37 20 -91 13 -117 -14z"/>
<path d="M1457 1729 c-44 -25 -47 -58 -47 -449 0 -394 3 -425 48 -449 37 -20
91 -13 117 14 l25 24 0 411 0 411 -25 24 c-26 27 -84 34 -118 14z"/>
</g>
</svg>
