<?xml version="1.0" standalone="no"?>
<!DOCTYPE svg PUBLIC "-//W3C//DTD SVG 20010904//EN"
 "http://www.w3.org/TR/2001/REC-SVG-20010904/DTD/svg10.dtd">
<svg version="1.0" xmlns="http://www.w3.org/2000/svg" viewBox="0 0 256.000000 256.000000"
 preserveAspectRatio="xMidYMid meet">

<g transform="translate(0.000000,256.000000) scale(0.100000,-0.100000)"
stroke="none">
<path d="M371 2534 c-21 -27 -21 -28 -21 -1254 0 -1226 0 -1227 21 -1254 l20
-26 298 0 c252 0 300 2 319 16 l22 15 0 1249 0 1249 -22 15 c-19 14 -67 16
-319 16 l-298 0 -20 -26z"/>
<path d="M1552 2544 l-22 -15 0 -1249 0 -1249 22 -15 c19 -14 67 -16 319 -16
l298 0 20 26 c21 27 21 28 21 1254 0 1226 0 1227 -21 1254 l-20 26 -298 0
c-252 0 -300 -2 -319 -16z"/>
</g>
</svg>
