<?xml version="1.0" standalone="no"?>
<!DOCTYPE svg PUBLIC "-//W3C//DTD SVG 20010904//EN"
 "http://www.w3.org/TR/2001/REC-SVG-20010904/DTD/svg10.dtd">
<svg version="1.0" xmlns="http://www.w3.org/2000/svg" viewBox="0 0 256.000000 256.000000"
 preserveAspectRatio="xMidYMid meet">

<g transform="translate(0.000000,256.000000) scale(0.100000,-0.100000)"
stroke="none">
<path d="M324 2471 c-47 -12 -133 -62 -160 -94 -14 -17 -37 -53 -52 -81 l-27
-51 0 -965 0 -965 27 -51 c40 -76 70 -107 140 -145 l63 -34 965 0 965 0 63 34
c70 38 100 69 140 145 l27 51 0 965 0 965 -34 63 c-38 70 -69 100 -145 140
l-51 27 -945 2 c-520 0 -959 -2 -976 -6z m1900 -165 c18 -8 46 -31 62 -52 l29
-37 0 -938 c0 -931 0 -938 -21 -965 -11 -15 -33 -37 -48 -48 -27 -21 -34 -21
-966 -21 -932 0 -939 0 -966 21 -15 11 -37 33 -48 48 -21 27 -21 36 -24 939
-1 502 0 926 3 944 7 40 49 91 90 109 46 20 1841 20 1889 0z"/>
<path d="M1017 1896 c-69 -25 -113 -62 -141 -117 l-26 -53 0 -445 c0 -412 2
-449 19 -486 34 -73 101 -125 184 -140 79 -15 118 5 454 234 374 256 378 260
378 391 0 131 -4 135 -378 390 -362 248 -391 261 -490 226z m394 -354 c321
-219 334 -231 313 -289 -7 -20 -85 -79 -309 -232 -324 -222 -346 -232 -386
-182 -18 22 -19 48 -19 438 0 274 4 421 11 434 11 21 41 37 70 38 9 1 153 -93
320 -207z"/>
</g>
</svg>
