<?xml version="1.0" standalone="no"?>
<!DOCTYPE svg PUBLIC "-//W3C//DTD SVG 20010904//EN"
 "http://www.w3.org/TR/2001/REC-SVG-20010904/DTD/svg10.dtd">
<svg version="1.0" xmlns="http://www.w3.org/2000/svg" viewBox="0 0 256.000000 256.000000"
 preserveAspectRatio="xMidYMid meet">

<g transform="translate(0.000000,256.000000) scale(0.100000,-0.100000)"
stroke="none">
<path d="M1958 2305 l-3 -240 -977 -3 -978 -2 0 -390 0 -390 125 0 125 0 0
270 0 270 855 0 855 0 2 -235 3 -235 298 297 297 298 -300 300 -300 300 -2
-240z"/>
<path d="M2310 1010 l0 -270 -855 0 -855 0 0 237 0 238 -300 -300 -300 -300
297 -298 298 -297 5 237 5 238 978 3 977 2 0 390 0 390 -125 0 -125 0 0 -270z"/>
</g>
</svg>
