<?xml version="1.0" standalone="no"?>
<!DOCTYPE svg PUBLIC "-//W3C//DTD SVG 20010904//EN"
 "http://www.w3.org/TR/2001/REC-SVG-20010904/DTD/svg10.dtd">
<svg version="1.0" xmlns="http://www.w3.org/2000/svg" viewBox="0 0 256.000000 256.000000"
 preserveAspectRatio="xMidYMid meet">

<g transform="translate(0.000000,256.000000) scale(0.100000,-0.100000)"
fill="#000000" stroke="none">
<path d="M1905 2225 c-16 -13 -20 -31 -23 -110 l-4 -94 -348 -3 c-406 -3 -370
7 -436 -129 -23 -46 -45 -79 -54 -79 -9 0 -31 33 -54 79 -21 44 -50 90 -63
103 l-25 23 -403 0 -403 0 -26 -24 c-39 -37 -49 -84 -44 -217 6 -195 -7 -188
358 -194 l285 -5 63 -125 c34 -69 65 -133 68 -142 3 -10 -23 -74 -62 -153
l-68 -135 -75 0 c-380 0 -486 -5 -513 -23 -46 -32 -58 -73 -58 -200 0 -129 6
-153 47 -191 l28 -26 398 0 c468 0 431 -9 492 124 22 47 46 86 52 86 7 0 33
-39 57 -87 69 -139 30 -127 437 -131 l349 -3 0 -85 c0 -81 1 -87 29 -115 16
-16 35 -29 43 -29 19 0 96 54 519 362 77 56 92 86 61 127 -16 23 -194 156
-317 239 -22 15 -42 29 -45 32 -3 3 -44 34 -92 69 -150 107 -189 95 -198 -62
l-5 -92 -230 0 -230 0 -67 135 c-37 74 -67 140 -67 145 0 6 30 71 67 145 l67
135 232 3 231 2 4 -94 c3 -105 16 -130 66 -134 22 -2 66 25 203 122 96 68 195
140 221 160 26 20 52 36 57 36 5 0 34 24 64 53 49 46 54 55 50 84 -5 31 -28
54 -130 123 -76 52 -329 237 -370 270 -7 6 -16 10 -21 10 -5 0 -15 7 -22 15
-16 19 -69 19 -95 0z m156 -154 c30 -22 74 -55 99 -73 25 -18 95 -68 155 -112
61 -43 112 -81 115 -83 6 -5 -16 -23 -145 -115 -55 -39 -141 -102 -192 -140
-51 -37 -99 -68 -108 -68 -13 0 -16 14 -14 87 1 73 -1 88 -17 100 -14 10 -77
13 -279 13 -233 0 -264 -2 -295 -18 -30 -16 -47 -43 -127 -203 -51 -101 -93
-190 -93 -196 0 -7 -4 -13 -8 -13 -4 0 -19 -25 -32 -56 -14 -31 -77 -161 -140
-288 l-115 -231 -370 0 -370 0 0 120 0 120 287 5 c285 5 287 5 312 29 19 18
239 438 241 461 1 16 249 506 258 512 7 4 172 8 368 8 315 0 358 2 370 16 9
11 12 40 10 90 -2 67 -1 74 17 74 10 0 43 -18 73 -39z m-1138 -267 c31 -63 57
-121 57 -130 0 -26 -113 -255 -125 -251 -5 2 -34 52 -63 110 -41 83 -61 111
-85 124 -35 19 -81 22 -405 23 l-183 0 3 118 3 117 190 5 c105 3 271 4 370 2
l181 -3 57 -115z m329 -671 c13 -21 32 -60 42 -87 28 -73 67 -112 127 -125 73
-16 487 -14 519 2 23 11 25 19 30 96 3 47 10 86 15 88 6 2 42 -19 80 -47 39
-28 93 -66 120 -86 28 -19 77 -55 110 -79 33 -24 77 -54 98 -66 20 -13 37 -26
37 -30 0 -5 -17 -20 -37 -35 -52 -38 -129 -94 -186 -135 -26 -19 -79 -57 -117
-86 -85 -64 -107 -76 -115 -63 -3 5 -5 44 -4 85 1 48 -2 80 -10 88 -9 9 -113
13 -379 17 l-367 5 -57 115 c-32 63 -57 121 -58 129 0 17 112 251 121 251 3 0
17 -17 31 -37z"/>
</g>
</svg>
