<svg version="1.1" id="Layer_1" xmlns="http://www.w3.org/2000/svg" xmlns:xlink="http://www.w3.org/1999/xlink" x="0px" y="0px"
	 width="100%" viewBox="0 0 256 256" enable-background="new 0 0 256 256" xml:space="preserve">
<path opacity="1.000000" stroke="none" 
	d="
M73.645111,165.502762 
	C75.080605,166.877838 76.256866,167.987549 78.249290,169.867249 
	C78.249290,132.448441 78.249290,95.982658 78.249290,59.257950 
	C83.442688,59.257950 88.000244,59.257950 93.043922,59.257950 
	C93.043922,95.911636 93.043922,132.428848 93.043922,170.042969 
	C100.800117,161.894608 107.801956,154.538742 114.722733,147.268036 
	C119.068535,151.602768 122.325439,154.851379 125.313232,157.831558 
	C112.131050,171.016266 98.878357,184.271500 85.896919,197.255417 
	C72.925240,184.283859 59.676228,171.034958 46.632751,157.991592 
	C49.608246,155.005859 52.847885,151.755066 56.641720,147.948166 
	C62.073334,153.556595 67.729614,159.396988 73.645111,165.502762 
z"/>
<path opacity="1.000000" stroke="none" 
	d="
M194.000000,63.997208 
	C204.636307,63.997208 214.772614,63.997208 225.289246,63.997208 
	C225.289246,68.896667 225.289246,73.604362 225.289246,78.662933 
	C195.846069,78.662933 166.336456,78.662933 136.466919,78.662933 
	C136.466919,74.117020 136.466919,69.395821 136.466919,63.997208 
	C155.405045,63.997208 174.452530,63.997208 194.000000,63.997208 
z"/>
<path opacity="1.000000" stroke="none" 
	d="
M153.001846,119.003716 
	C147.215530,119.003716 141.928833,119.003716 136.377869,119.003716 
	C136.377869,113.921608 136.377869,109.206398 136.377869,104.242149 
	C159.389542,104.242149 182.246384,104.242149 205.388016,104.242149 
	C205.388016,109.067375 205.388016,113.792702 205.388016,119.003716 
	C187.974030,119.003716 170.737747,119.003716 153.001846,119.003716 
z"/>
<path opacity="1.000000" stroke="none" 
	d="
M185.675125,149.153870 
	C185.675095,152.578751 185.675095,155.533371 185.675095,158.743347 
	C169.046432,158.743347 152.852676,158.743347 136.381195,158.743347 
	C136.381195,153.936707 136.381195,149.222092 136.381195,144.248932 
	C152.714294,144.248932 168.913788,144.248932 185.437149,144.248932 
	C185.519516,145.783676 185.597336,147.233627 185.675125,149.153870 
z"/>
<path opacity="1.000000" stroke="none" 
	d="
M165.681595,192.906662 
	C165.681549,195.015228 165.681549,196.653351 165.681549,198.649246 
	C155.871063,198.649246 146.340347,198.649246 136.453094,198.649246 
	C136.453094,194.112579 136.453094,189.397873 136.453094,184.334229 
	C145.875076,184.334229 155.416199,184.334229 165.681641,184.334229 
	C165.681641,186.941742 165.681641,189.688980 165.681595,192.906662 
z"/>
</svg>