<?xml version="1.0" standalone="no"?>
<!DOCTYPE svg PUBLIC "-//W3C//DTD SVG 20010904//EN"
 "http://www.w3.org/TR/2001/REC-SVG-20010904/DTD/svg10.dtd">
<svg version="1.0" xmlns="http://www.w3.org/2000/svg" viewBox="0 0 256.000000 256.000000"
 preserveAspectRatio="xMidYMid meet">

<g transform="translate(0.000000,256.000000) scale(0.100000,-0.100000)" stroke="none">
<path d="M401 2196 c-52 -29 -50 -8 -51 -793 0 -403 -2 -733 -4 -733 -2 0 -49
47 -106 105 -111 113 -138 127 -189 101 -39 -21 -55 -50 -48 -93 5 -27 42 -71
192 -226 103 -106 197 -197 208 -204 50 -28 65 -18 215 130 217 215 266 272
266 313 0 48 -41 88 -89 88 -32 0 -47 -11 -145 -109 l-109 -109 -3 743 -3 743
-33 29 c-35 31 -64 36 -101 15z"/>
<path d="M1160 2203 c-66 -25 -78 -117 -21 -160 23 -18 1359 -18 1382 0 44 34
50 93 15 134 l-24 28 -669 2 c-367 1 -675 -1 -683 -4z"/>
<path d="M1143 1631 c-65 -40 -50 -140 25 -160 50 -15 984 -15 1034 -1 69 19
90 93 44 147 l-24 28 -524 3 c-505 2 -524 2 -555 -17z"/>
<path d="M1163 1079 c-32 -9 -63 -50 -63 -84 0 -32 30 -73 61 -84 44 -15 724
-15 768 0 31 11 61 52 61 84 0 36 -30 74 -68 84 -47 14 -714 13 -759 0z"/>
<path d="M1142 513 c-23 -9 -44 -64 -38 -98 13 -68 20 -70 292 -73 l245 -3 29
30 c39 38 41 91 5 126 l-24 25 -248 -1 c-136 0 -254 -3 -261 -6z"/>
</g>
</svg>
