<?xml version="1.0" standalone="no"?>
<!DOCTYPE svg PUBLIC "-//W3C//DTD SVG 20010904//EN"
 "http://www.w3.org/TR/2001/REC-SVG-20010904/DTD/svg10.dtd">
<svg version="1.0" xmlns="http://www.w3.org/2000/svg" viewBox="0 0 256.000000 256.000000"
 preserveAspectRatio="xMidYMid meet">

<g transform="translate(0.000000,256.000000) scale(0.100000,-0.100000)"  stroke="none">
<path d="M110 1605 c-99 -99 -113 -117 -100 -129 8 -7 231 -190 495 -407 264
-216 544 -446 623 -511 79 -65 148 -118 153 -118 6 0 173 134 372 298 199 164
474 390 611 502 137 113 261 215 275 227 l26 22 -115 115 c-63 64 -117 116
-121 116 -3 0 -238 -191 -523 -425 -284 -234 -521 -425 -526 -425 -5 0 -49 33
-97 73 -320 266 -936 769 -946 773 -7 2 -64 -48 -127 -111z"/>
</g>
</svg>
