<?xml version="1.0" standalone="no"?>
<!DOCTYPE svg PUBLIC "-//W3C//DTD SVG 20010904//EN"
 "http://www.w3.org/TR/2001/REC-SVG-20010904/DTD/svg10.dtd">
<svg version="1.0" xmlns="http://www.w3.org/2000/svg" viewBox="0 0 256.000000 256.000000"
 preserveAspectRatio="xMidYMid meet">

<g transform="translate(0.000000,256.000000) scale(0.100000,-0.100000)"
 stroke="none">
<path d="M875 2202 c-16 -11 -218 -208 -447 -439 l-418 -419 0 -49 0 -49 422
-424 c249 -250 437 -430 456 -438 75 -33 152 24 152 113 0 36 -13 51 -315 353
-173 173 -315 319 -315 323 0 4 459 7 1020 7 1104 0 1056 -2 1094 52 20 29 20
97 0 126 -38 54 10 52 -1094 52 -561 0 -1020 3 -1020 8 0 4 140 147 310 317
205 205 314 321 321 342 12 36 -5 86 -39 116 -31 28 -91 32 -127 9z"/>
</g>
</svg>
