<svg version="1.1" id="Layer_1" xmlns="http://www.w3.org/2000/svg" xmlns:xlink="http://www.w3.org/1999/xlink" x="0px" y="0px"
	 width="100%" viewBox="0 0 256 256" enable-background="new 0 0 256 256" xml:space="preserve">
<path fill="#000000" opacity="1.000000" stroke="none" 
	d="
M191.995605,124.660133 
	C196.659744,124.669662 200.828812,124.573097 204.989304,124.720123 
	C208.916367,124.858894 211.255310,127.020065 211.245621,130.995529 
	C211.235977,134.955566 208.895920,137.047913 204.985031,137.305817 
	C203.325531,137.415268 201.653992,137.350662 199.987930,137.351105 
	C158.000748,137.361938 116.013565,137.365036 74.026405,137.398758 
	C72.071388,137.400314 70.043884,137.003540 67.765663,138.146332 
	C72.846893,144.528961 79.271118,149.273926 85.057739,154.640091 
	C93.961342,162.896774 103.152870,170.842178 112.112778,179.039307 
	C115.995903,182.591843 116.396187,186.439133 113.288429,189.449203 
	C109.965263,192.667908 106.772102,191.593475 103.644310,188.782043 
	C88.547684,175.212402 73.393219,161.707153 58.268814,148.168396 
	C54.177307,144.505844 50.095798,140.831451 46.051785,137.116684 
	C41.322041,132.772018 41.177776,129.195175 45.891060,124.940842 
	C61.593090,110.767754 77.386040,96.695404 93.141960,82.582001 
	C96.863060,79.248825 100.494247,75.809265 104.316986,72.597404 
	C107.556091,69.875908 112.109688,69.897713 114.133591,72.735085 
	C116.506081,76.061172 115.888924,79.347000 112.870956,82.082497 
	C99.917847,93.823235 86.941620,105.538460 73.982689,117.272781 
	C71.662285,119.373909 69.383751,121.521271 65.990852,124.660446 
	C108.717545,124.660446 150.107178,124.660446 191.995605,124.660133 
z"/>
</svg>