<?xml version="1.0" standalone="no"?>
<!DOCTYPE svg PUBLIC "-//W3C//DTD SVG 20010904//EN"
 "http://www.w3.org/TR/2001/REC-SVG-20010904/DTD/svg10.dtd">
<svg version="1.0" xmlns="http://www.w3.org/2000/svg" viewBox="0 0 256.000000 256.000000"
 preserveAspectRatio="xMidYMid meet">

<g transform="translate(0.000000,256.000000) scale(0.100000,-0.100000)"
fill="#000000" stroke="none">
<path d="M1235 2549 c-31 -17 -1204 -1191 -1221 -1221 -36 -69 11 -148 90
-148 13 0 40 11 60 25 l36 24 0 -584 0 -584 24 -28 24 -28 1032 0 1032 0 24
28 24 28 0 584 0 584 36 -24 c20 -14 47 -25 60 -25 75 0 126 78 93 143 -16 31
-1188 1205 -1221 1223 -32 17 -65 18 -93 3z m487 -676 l438 -438 0 -617 0
-618 -195 0 -195 0 0 363 c0 355 0 364 -21 386 -11 12 -32 26 -46 32 -32 12
-814 12 -846 0 -14 -6 -35 -20 -46 -32 -21 -22 -21 -31 -21 -386 l0 -363 -195
0 -195 0 0 617 0 618 437 437 c241 241 440 438 443 438 3 0 202 -197 442 -437z
m-152 -1378 l0 -295 -290 0 -290 0 0 295 0 295 290 0 290 0 0 -295z"/>
</g>
</svg>
