<?xml version="1.0" standalone="no"?>
<!DOCTYPE svg PUBLIC "-//W3C//DTD SVG 20010904//EN"
 "http://www.w3.org/TR/2001/REC-SVG-20010904/DTD/svg10.dtd">
<svg version="1.0" xmlns="http://www.w3.org/2000/svg" viewBox="0 0 256.000000 256.000000"
 preserveAspectRatio="xMidYMid meet">

<g transform="translate(0.000000,256.000000) scale(0.100000,-0.100000)"
fill="#000000" stroke="none">
<path d="M160 2547 c-49 -16 -133 -102 -148 -153 -8 -29 -12 -151 -12 -415 0
-372 0 -374 24 -425 29 -63 85 -110 153 -130 78 -23 771 -17 824 7 46 21 107
82 128 128 24 53 30 746 7 824 -20 68 -67 124 -130 153 -51 24 -52 24 -431 23
-247 -1 -392 -5 -415 -12z m797 -171 l28 -24 0 -366 0 -365 -23 -23 -23 -23
-365 0 -366 0 -24 28 -24 28 0 360 0 360 25 24 24 25 360 0 360 0 28 -24z"/>
<path d="M1554 2536 c-62 -29 -110 -84 -129 -150 -19 -62 -22 -704 -4 -786 14
-66 62 -127 124 -159 l49 -26 369 -3 c409 -3 439 0 510 59 21 17 48 50 60 72
21 41 22 51 25 422 2 273 0 392 -9 423 -7 25 -30 64 -56 92 -71 79 -77 80
-512 80 -374 0 -376 0 -427 -24z m821 -161 l25 -24 0 -360 0 -360 -24 -28 -24
-28 -366 0 -365 0 -23 23 c-23 23 -23 23 -26 383 l-3 360 30 29 29 30 362 0
361 0 24 -25z"/>
<path d="M144 1131 c-22 -10 -57 -35 -77 -56 -65 -66 -67 -85 -67 -494 0 -221
4 -381 10 -403 16 -56 69 -119 125 -147 l49 -26 386 0 c375 0 386 1 432 22 54
25 90 60 122 118 20 39 21 50 21 435 0 389 0 396 -22 436 -28 53 -91 107 -142
122 -26 8 -158 12 -417 12 -347 0 -382 -2 -420 -19z m807 -154 c37 -28 39 -49
39 -396 0 -201 -4 -350 -10 -366 -20 -53 -48 -56 -427 -53 l-345 3 -24 28 -24
28 0 360 0 360 25 24 24 25 363 0 c270 -1 367 -4 379 -13z"/>
<path d="M1571 1136 c-48 -17 -108 -71 -134 -119 -22 -41 -22 -47 -22 -437 l0
-395 29 -53 c32 -58 96 -107 155 -119 20 -5 203 -8 406 -8 l371 0 49 26 c56
28 109 91 125 147 6 22 10 182 10 403 0 409 -2 428 -67 494 -73 75 -71 75
-503 74 -276 0 -395 -4 -419 -13z m804 -171 l25 -24 0 -360 0 -360 -24 -28
-24 -28 -345 -3 c-379 -3 -407 0 -427 53 -6 16 -10 165 -10 366 0 281 3 345
15 369 8 15 20 30 27 33 7 3 176 6 376 6 l363 1 24 -25z"/>
</g>
</svg>
