<svg version="1.1" id="Layer_1" xmlns="http://www.w3.org/2000/svg" xmlns:xlink="http://www.w3.org/1999/xlink" x="0px" y="0px"
	 width="100%" viewBox="0 0 256 256" enable-background="new 0 0 256 256" xml:space="preserve">
<path opacity="1.000000" stroke="none" 
	d="
M63.822716,129.842621 
	C64.759094,119.737274 70.042351,114.098228 78.538399,113.688118 
	C86.061874,113.324966 92.668602,118.268074 94.314529,125.491722 
	C96.227005,133.885193 91.532143,141.624924 83.170692,143.862854 
	C75.059792,146.033707 66.865112,141.355698 64.489929,133.178024 
	C64.213066,132.224823 64.058830,131.236008 63.822716,129.842621 
z"/>
<path opacity="1.000000" stroke="none" 
	d="
M167.733887,118.810188 
	C174.378006,112.804352 181.986771,112.060066 188.423996,116.515160 
	C193.775406,120.218788 196.128128,127.886047 193.783310,134.282272 
	C191.642517,140.121902 187.399170,143.579590 181.251572,144.228607 
	C175.005783,144.887970 169.727188,142.828613 166.401947,137.214584 
	C162.718658,130.996094 163.153580,124.900528 167.733887,118.810188 
z"/>
<path opacity="1.000000" stroke="none" 
	d="
M119.911591,116.714386 
	C126.536537,112.588966 132.891479,112.418846 138.836655,116.998528 
	C144.105911,121.057549 145.773254,126.768120 144.098862,133.093246 
	C142.468323,139.252625 138.201843,143.177612 131.862122,144.141724 
	C125.636658,145.088470 120.263878,143.152557 116.695374,137.677261 
	C113.095871,132.154404 112.989555,126.404297 116.385399,120.731384 
	C117.224609,119.329430 118.521538,118.201462 119.911591,116.714386 
z"/>
</svg>