<?xml version="1.0" standalone="no"?>
<!DOCTYPE svg PUBLIC "-//W3C//DTD SVG 20010904//EN"
 "http://www.w3.org/TR/2001/REC-SVG-20010904/DTD/svg10.dtd">
<svg version="1.0" xmlns="http://www.w3.org/2000/svg" viewBox="0 0 256.000000 256.000000"
 preserveAspectRatio="xMidYMid meet">

<g transform="translate(0.000000,256.000000) scale(0.100000,-0.100000)"
fill="#000000" stroke="none">
<path d="M365 2485 l-45 -44 0 -1026 c0 -1133 -4 -1065 63 -1105 31 -19 58
-20 1052 -20 1005 0 1020 0 1053 20 65 40 62 -13 62 1100 0 1126 5 1048 -70
1095 l-40 25 -1015 0 -1016 0 -44 -45z m2043 -1077 l2 -978 -975 0 -975 0 0
980 0 980 973 -2 972 -3 3 -977z"/>
<path d="M1437 1964 c-4 -4 -7 -169 -7 -366 0 -197 -3 -358 -6 -358 -3 0 -31
7 -61 16 -123 36 -262 -30 -319 -151 -34 -72 -33 -172 2 -243 98 -197 377
-205 491 -14 l28 47 5 465 5 465 138 3 138 3 -3 67 -3 67 -201 3 c-110 1 -203
-1 -207 -4z m-39 -890 c76 -88 14 -224 -103 -224 -45 0 -88 22 -113 57 -99
142 102 297 216 167z"/>
<path d="M135 2239 c-17 -5 -44 -22 -60 -39 l-30 -31 -3 -1030 c-3 -1138 -6
-1068 61 -1109 31 -19 58 -20 1052 -20 1005 0 1020 0 1053 20 31 19 62 71 62
105 0 13 -113 15 -1045 15 l-1045 0 0 1044 c0 575 -3 1047 -7 1049 -5 2 -22 0
-38 -4z"/>
</g>
</svg>
