<svg version="1.1" id="Layer_1" xmlns="http://www.w3.org/2000/svg" xmlns:xlink="http://www.w3.org/1999/xlink" x="0px" y="0px"
	 width="100%" viewBox="0 0 256 256" enable-background="new 0 0 256 256" xml:space="preserve">
<path fill="#FFFFFF" opacity="1.000000" stroke="none" 
	d="
M125.000000,257.000000 
	C83.333336,257.000000 42.166672,257.000000 1.000005,257.000000 
	C1.000004,171.666672 1.000004,86.333351 1.000002,1.000017 
	C86.333321,1.000011 171.666641,1.000011 257.000000,1.000006 
	C257.000000,86.333313 257.000000,171.666626 257.000000,256.999969 
	C213.166672,257.000000 169.333328,257.000000 125.000000,257.000000 
M139.945831,192.983154 
	C152.367142,192.983154 164.788437,192.983154 177.282135,192.983154 
	C177.282135,152.744232 177.282135,112.975052 177.282135,73.163414 
	C164.273956,73.163414 151.649124,73.163414 138.482269,73.103752 
	C138.401932,73.410774 138.321579,73.717804 138.127136,74.952522 
	C138.165176,113.959160 138.203217,152.965790 138.102768,192.499893 
	C138.409012,192.612015 138.715271,192.724121 139.945831,192.983154 
M79.945831,192.983154 
	C92.367134,192.983154 104.788437,192.983154 117.282120,192.983154 
	C117.282120,152.744232 117.282120,112.975060 117.282120,73.163422 
	C104.273918,73.163422 91.649078,73.163422 78.482246,73.103760 
	C78.401909,73.410782 78.321571,73.717812 78.127129,74.952522 
	C78.165169,113.959160 78.203201,152.965790 78.102776,192.499893 
	C78.409019,192.612000 78.715263,192.724121 79.945831,192.983154 
z"/>
<path fill="#1E3050" opacity="1.000000" stroke="none" 
	d="
M79.024246,73.163422 
	C91.649078,73.163422 104.273918,73.163422 117.282120,73.163422 
	C117.282120,112.975060 117.282120,152.744232 117.282120,192.983154 
	C104.788437,192.983154 92.367134,192.983154 79.407188,192.721069 
	C78.732307,192.202881 78.523209,192.040680 78.241241,191.972427 
	C78.203201,152.965790 78.165169,113.959160 78.368896,74.403259 
	C78.818123,73.665489 78.955986,73.435295 79.024246,73.163422 
z"/>
<path fill="#1E3050" opacity="1.000000" stroke="none" 
	d="
M138.241241,191.972427 
	C138.203217,152.965790 138.165176,113.959160 138.368896,74.403252 
	C138.818115,73.665489 138.955994,73.435303 139.024277,73.163414 
	C151.649124,73.163414 164.273956,73.163414 177.282135,73.163414 
	C177.282135,112.975052 177.282135,152.744232 177.282135,192.983154 
	C164.788437,192.983154 152.367142,192.983154 139.407181,192.721069 
	C138.732315,192.202881 138.523209,192.040680 138.241241,191.972427 
z"/>
<path fill="#475670" opacity="1.000000" stroke="none" 
	d="
M78.753250,73.133591 
	C78.955986,73.435295 78.818123,73.665489 78.425949,73.939407 
	C78.321571,73.717812 78.401909,73.410782 78.753250,73.133591 
z"/>
<path fill="#475670" opacity="1.000000" stroke="none" 
	d="
M138.753265,73.133583 
	C138.955994,73.435303 138.818115,73.665489 138.425934,73.939407 
	C138.321579,73.717804 138.401932,73.410774 138.753265,73.133583 
z"/>
<path fill="#475670" opacity="1.000000" stroke="none" 
	d="
M78.172012,192.236160 
	C78.523209,192.040680 78.732307,192.202881 78.945023,192.647614 
	C78.715263,192.724121 78.409019,192.612000 78.172012,192.236160 
z"/>
<path fill="#475670" opacity="1.000000" stroke="none" 
	d="
M138.171997,192.236160 
	C138.523209,192.040680 138.732315,192.202881 138.945023,192.647614 
	C138.715271,192.724121 138.409012,192.612015 138.171997,192.236160 
z"/>
</svg>