<?xml version="1.0" standalone="no"?>
<!DOCTYPE svg PUBLIC "-//W3C//DTD SVG 20010904//EN"
 "http://www.w3.org/TR/2001/REC-SVG-20010904/DTD/svg10.dtd">
<svg version="1.0" xmlns="http://www.w3.org/2000/svg" viewBox="0 0 256.000000 256.000000"
 preserveAspectRatio="xMidYMid meet">

<g transform="translate(0.000000,256.000000) scale(0.100000,-0.100000)"
stroke="none">
<path d="M763 2546 c-588 -112 -916 -728 -680 -1276 87 -200 245 -363 448
-460 139 -66 220 -83 394 -83 123 0 164 4 230 22 95 25 207 77 286 131 53 36
58 38 72 22 34 -39 39 -61 26 -111 -10 -39 -9 -52 3 -74 19 -36 634 -675 673
-699 64 -39 96 -23 236 113 98 96 112 120 101 176 -5 25 -132 162 -534 575
-148 153 -175 171 -227 151 -34 -12 -82 1 -110 31 l-23 25 25 33 c62 82 129
249 148 370 14 93 6 294 -16 378 -24 95 -116 275 -177 350 -120 146 -306 265
-488 311 -107 27 -286 34 -387 15z m357 -304 c186 -61 337 -210 404 -402 26
-75 30 -98 30 -200 0 -100 -4 -125 -28 -195 -30 -88 -50 -124 -108 -201 -75
-100 -229 -196 -356 -223 -74 -15 -215 -13 -289 4 -230 54 -419 249 -468 482
-71 332 130 655 465 748 80 22 264 15 350 -13z"/>
</g>
</svg>
