<?xml version="1.0" standalone="no"?>
<!DOCTYPE svg PUBLIC "-//W3C//DTD SVG 20010904//EN"
 "http://www.w3.org/TR/2001/REC-SVG-20010904/DTD/svg10.dtd">
<svg version="1.0" xmlns="http://www.w3.org/2000/svg" viewBox="0 0 256.000000 256.000000"
 preserveAspectRatio="xMidYMid meet">

<g transform="translate(0.000000,256.000000) scale(0.100000,-0.100000)" stroke="none">
<path d="M120 2173 c-28 -10 -70 -56 -81 -90 -9 -28 -7 -40 11 -77 39 -82 -57
-76 1240 -76 1256 0 1186 -3 1225 57 23 35 24 101 1 135 -40 61 27 58 -1233
57 -631 0 -1155 -3 -1163 -6z"/>
<path d="M114 1416 c-37 -16 -70 -57 -79 -96 -8 -37 18 -94 55 -120 28 -20 45
-20 1197 -20 1112 0 1169 1 1193 18 36 26 63 85 55 121 -9 41 -42 81 -81 97
-49 20 -2293 20 -2340 0z"/>
<path d="M94 651 c-17 -10 -39 -36 -48 -56 -15 -32 -16 -44 -7 -76 13 -45 59
-86 104 -94 18 -3 544 -4 1169 -3 1130 3 1137 3 1165 24 15 11 36 37 47 58 16
32 17 44 7 77 -7 23 -25 49 -45 64 l-33 25 -1164 0 c-1121 0 -1165 -1 -1195
-19z"/>
</g>
</svg>
